<?xml version="1.0" encoding="utf-8"?>
<!-- Generated by IcoMoon.io -->
<svg version="1.1" xmlns="http://www.w3.org/2000/svg" xmlns:xlink="http://www.w3.org/1999/xlink" width="752" height="32" viewBox="0 0 752 32">
<svg id="icon-empty-whitelist" width="37" height="32" viewBox="0 0 37 32" x="0" y="0">
<path fill="#7c7b7b" d="M33.901 2.865c-1.774-1.769-4.222-2.863-6.926-2.863-3.667 0-6.864 2.012-8.547 4.993l-0.025 0.049c-1.719-2.999-4.902-4.987-8.55-4.987-5.424 0-9.822 4.397-9.822 9.822 0 2.691 1.082 5.128 2.834 6.902l-0.001-0.001 15.102 15.023c0.122 0.121 0.29 0.196 0.475 0.196s0.354-0.075 0.475-0.196l15.010-15.023c1.77-1.78 2.865-4.234 2.865-6.944 0-2.723-1.105-5.188-2.891-6.97l-0-0zM33.003 15.842l-14.521 14.521-14.68-14.521c-1.535-1.538-2.484-3.662-2.484-6.007 0-4.697 3.807-8.504 8.504-8.504 2.352 0 4.48 0.954 6.020 2.497l0 0c0.838 0.843 1.503 1.859 1.934 2.991l0.020 0.059c0.060 0.17 0.182 0.306 0.339 0.381l0.004 0.002c0.076 0.032 0.165 0.050 0.257 0.050s0.181-0.018 0.262-0.052l-0.005 0.002c0.185-0.068 0.328-0.211 0.395-0.391l0.001-0.005c1.241-3.247 4.331-5.512 7.949-5.512 4.688 0 8.488 3.8 8.488 8.488 0 2.343-0.949 4.464-2.484 6l0-0z"></path>
</svg>
<svg id="icon-enjoy" width="35" height="32" viewBox="0 0 35 32" x="48" y="0">
<path fill="#f05462" d="M35.052 16.222c-0.019-0.041-0.042-0.077-0.070-0.108l0 0-4.603-4.954c-0.048-0.053-0.112-0.092-0.185-0.107l-0.002-0-6.202-1.706c-0.112 0.234-0.234 0.467-0.365 0.687l5.141 1.402-11.249 3.739-11.277-3.739 3.814-1.084c-0.145-0.224-0.28-0.467-0.402-0.687l-4.8 1.388c-0.071 0.019-0.131 0.056-0.177 0.107l-0 0-4.575 4.954c-0.061 0.067-0.099 0.157-0.099 0.255 0 0.112 0.049 0.213 0.126 0.282l0 0c0.029 0.028 0.063 0.051 0.1 0.069l0.002 0.001 4.346 1.94v7.244c0.004 0.153 0.096 0.284 0.227 0.345l0.002 0.001 12.577 5.716c0.045 0.022 0.098 0.035 0.154 0.035s0.109-0.013 0.156-0.036l-0.002 0.001 12.572-5.716c0.135-0.059 0.228-0.192 0.229-0.346v-7.244l4.346-1.94c0.143-0.059 0.241-0.198 0.241-0.359 0-0.051-0.010-0.099-0.027-0.143l0.001 0.003zM1.042 16.222l4.047-4.384 12.016 4.024-5.739 5.029zM17.152 16.825v14.189l-11.815-5.361v-6.646l5.945 2.669c0.046 0.021 0.1 0.034 0.156 0.034 0.096 0 0.184-0.036 0.251-0.095l-0 0 5.463-4.79zM29.729 25.653l-11.815 5.361v-14.189l5.454 4.79c0.066 0.058 0.153 0.094 0.248 0.094 0.056 0 0.109-0.012 0.156-0.034l-0.002 0.001 5.945-2.669zM23.7 20.891l-5.739-5.029 12.030-4.001 4.047 4.384z"></path>
<path fill="#f05462" d="M22.513 7.529l-0.762-0.248-0.224-0.738c-0.034-0.111-0.135-0.19-0.255-0.19-0.086 0-0.163 0.041-0.212 0.105l-0 0.001-0.467 0.645h-0.794c-0.002-0-0.004-0-0.006-0-0.102 0-0.19 0.056-0.237 0.139l-0.001 0.001c-0.024 0.040-0.038 0.088-0.038 0.14s0.014 0.1 0.039 0.141l-0.001-0.001 0.467 0.645-0.248 0.71c-0.011 0.027-0.018 0.059-0.018 0.093 0 0.070 0.028 0.133 0.074 0.178v0c0.049 0.050 0.118 0.081 0.194 0.081 0.028 0 0.054-0.004 0.079-0.012l-0.002 0.001 0.762-0.248 0.631 0.467c0.044 0.035 0.099 0.056 0.16 0.056 0.001 0 0.002 0 0.003-0h-0c0 0 0 0 0 0 0.145 0 0.262-0.117 0.262-0.262 0-0.002 0-0.003-0-0.005v0-0.78l0.654-0.467c0.070-0.050 0.115-0.13 0.115-0.221 0-0.013-0.001-0.025-0.003-0.037l0 0.001c-0.020-0.092-0.085-0.165-0.171-0.196l-0.002-0.001zM20.564 8.174c0.017-0.033 0.027-0.073 0.027-0.114s-0.010-0.081-0.028-0.116l0.001 0.001-0.238-0.327h0.407c0.002 0 0.004 0 0.006 0 0.086 0 0.162-0.042 0.209-0.107l0.001-0.001 0.238-0.322 0.112 0.383c0.025 0.085 0.089 0.151 0.171 0.177l0.002 0.001 0.383 0.122-0.332 0.229c-0.071 0.048-0.117 0.129-0.117 0.22v0.397l-0.318-0.243c-0.043-0.035-0.098-0.056-0.159-0.056-0 0-0 0-0 0v0c-0.013-0.002-0.027-0.004-0.042-0.004s-0.029 0.001-0.044 0.004l0.001-0-0.379 0.126z"></path>
<path fill="#f05462" d="M11.567 3.809c0.048 0.072 0.13 0.119 0.222 0.119 0.011 0 0.021-0.001 0.032-0.002l-0.001 0 1.402-0.159 0.893 1.047c0.050 0.054 0.122 0.088 0.201 0.089h0c0.010 0.002 0.021 0.003 0.033 0.003s0.023-0.001 0.034-0.004l-0.001 0c0.098-0.024 0.172-0.102 0.191-0.199l0-0.002 0.276-1.365 1.281-0.533c0.091-0.038 0.155-0.126 0.159-0.229v-0c0-0.003 0-0.007 0-0.011 0-0.099-0.054-0.186-0.134-0.231l-0.001-0.001-1.196-0.706-0.126-1.402c-0.012-0.134-0.124-0.239-0.261-0.239-0.069 0-0.132 0.027-0.179 0.071l0-0-1.024 0.935-1.355-0.308c-0.018-0.004-0.039-0.007-0.060-0.007-0.083 0-0.156 0.037-0.206 0.095l-0 0c-0.035 0.046-0.057 0.104-0.057 0.168 0 0.041 0.009 0.080 0.025 0.114l-0.001-0.002 0.561 1.285-0.71 1.192c-0.025 0.040-0.040 0.088-0.040 0.14s0.015 0.1 0.041 0.141l-0.001-0.001zM12.291 3.342l0.509-0.851c0.020-0.036 0.032-0.078 0.032-0.124s-0.012-0.088-0.032-0.125l0.001 0.001-0.416-0.902 0.967 0.22c0.018 0.004 0.038 0.007 0.059 0.007 0.069 0 0.131-0.026 0.179-0.068l-0 0 0.734-0.673 0.089 0.991c0.009 0.089 0.060 0.164 0.134 0.205l0.001 0.001 0.865 0.467-0.935 0.393c-0.079 0.034-0.137 0.105-0.154 0.19l-0 0.002-0.164 0.986-0.654-0.748c-0.047-0.055-0.117-0.089-0.194-0.089-0.001 0-0.001 0-0.002 0h0z"></path>
<path fill="#f05462" d="M17.292 3.458l1.327 0.411 0.411 1.327c0.030 0.095 0.11 0.166 0.209 0.182l0.002 0h0.042c0 0 0 0 0 0 0.090 0 0.17-0.044 0.219-0.111l0.001-0.001 0.799-1.136h1.402c0.010 0.001 0.022 0.002 0.034 0.002 0.096 0 0.18-0.051 0.227-0.127l0.001-0.001c0.013-0.029 0.020-0.063 0.020-0.099 0-0.064-0.023-0.123-0.062-0.168l0 0-0.832-1.126 0.444-1.318c0.008-0.025 0.013-0.053 0.013-0.082 0-0.074-0.030-0.141-0.078-0.189v0c-0.046-0.048-0.11-0.077-0.182-0.077-0.032 0-0.063 0.006-0.091 0.017l0.002-0.001-1.318 0.439-1.112-0.823c-0.044-0.033-0.099-0.053-0.159-0.053-0.147 0-0.266 0.119-0.266 0.266 0 0 0 0.001 0 0.001v-0 1.402l-1.112 0.794c-0.070 0.048-0.115 0.127-0.115 0.217 0 0.014 0.001 0.028 0.003 0.042l-0-0.002c0.016 0.097 0.083 0.176 0.171 0.21l0.002 0.001zM18.881 1.323l0.794 0.594c0.042 0.033 0.096 0.053 0.155 0.053 0.032 0 0.062-0.006 0.090-0.016l-0.002 0.001 0.935-0.318-0.318 0.935c-0.010 0.026-0.016 0.057-0.016 0.089 0 0.054 0.016 0.104 0.044 0.146l-0.001-0.001 0.594 0.799h-0.991c-0.083 0.007-0.154 0.049-0.2 0.111l-0.001 0.001-0.575 0.813-0.294-0.935c-0.027-0.082-0.090-0.146-0.171-0.172l-0.002-0.001-0.935-0.294 0.809-0.575c0.060-0.050 0.098-0.125 0.098-0.209 0-0.002-0-0.004-0-0.006v0z"></path>
<path fill="#f05462" d="M13.273 6.931c-0.086-0.7-0.676-1.236-1.392-1.236-0.654 0-1.203 0.448-1.358 1.054l-0.002 0.010c-0.001 0.019-0.002 0.042-0.002 0.065 0 0.735 0.566 1.339 1.286 1.397l0.005 0h0.089c0.729-0.001 1.326-0.568 1.374-1.286l0-0.004zM11.95 5.996c0.444 0.032 0.792 0.399 0.792 0.849 0 0.251-0.109 0.477-0.282 0.632l-0.001 0.001c-0.152 0.131-0.352 0.212-0.57 0.212-0.016 0-0.033-0-0.049-0.001l0.002 0c-0.446-0.032-0.796-0.402-0.796-0.853 0-0.017 0.001-0.034 0.002-0.051l-0 0.002c0.014-0.234 0.123-0.441 0.289-0.583l0.001-0.001c0.143-0.129 0.334-0.209 0.544-0.209 0.024 0 0.048 0.001 0.072 0.003l-0.003-0z"></path>
<path fill="#f05462" d="M17.624 5.029c-0.168-0.2-0.41-0.332-0.683-0.355l-0.004-0c-0.011-0-0.023-0.001-0.036-0.001-0.532 0-0.969 0.41-1.011 0.932l-0 0.004c-0.001 0.020-0.002 0.044-0.002 0.067 0 0.529 0.413 0.962 0.934 0.994l0.003 0h0.061c0.001 0 0.003 0 0.004 0 0.552 0 1-0.448 1-1 0-0.255-0.096-0.488-0.253-0.665l0.001 0.001zM16.872 5.22h0.033c0.129 0.008 0.243 0.068 0.322 0.158l0 0.001c0.073 0.082 0.118 0.191 0.118 0.31 0 0.011-0 0.022-0.001 0.032l0-0.001c-0.015 0.246-0.218 0.441-0.467 0.441-0.012 0-0.023-0-0.035-0.001l0.002 0c-0.252-0.008-0.454-0.214-0.454-0.467 0-0.258 0.209-0.468 0.468-0.468 0.005 0 0.010 0 0.015 0l-0.001-0z"></path>
<path fill="#f05462" d="M14.273 5.692c-0.046-0.040-0.107-0.064-0.173-0.064-0.080 0-0.152 0.035-0.201 0.091l-0 0c-0.041 0.046-0.065 0.106-0.065 0.173 0 0.078 0.034 0.148 0.088 0.196l0 0c1.148 0.971 1.954 2.315 2.228 3.844l0.006 0.040c0.017 0.135 0.131 0.239 0.269 0.239 0.006 0 0.011-0 0.017-0.001l-0.001 0c0.135-0.012 0.239-0.124 0.239-0.261 0-0.009-0-0.017-0.001-0.025l0 0.001c-0.287-1.71-1.158-3.179-2.396-4.226l-0.010-0.009z"></path>
<path fill="#f05462" d="M18.152 9.113c0.487-1.838 1.829-3.285 3.564-3.909l0.039-0.012c0.107-0.033 0.183-0.131 0.183-0.246 0-0.031-0.005-0.060-0.015-0.087l0.001 0.002c-0.029-0.115-0.132-0.199-0.254-0.199-0.028 0-0.055 0.004-0.080 0.012l0.002-0c-1.954 0.695-3.431 2.289-3.949 4.271l-0.010 0.043c-0.003 0.016-0.005 0.034-0.005 0.053 0 0.127 0.090 0.234 0.209 0.26l0.002 0h0.056c0.002 0 0.004 0 0.006 0 0.118 0 0.218-0.078 0.25-0.185l0-0.002z"></path>
<path fill="#f05462" d="M12.352 9.006c-0.147 0-0.266 0.119-0.266 0.266v0c0.003 0.146 0.12 0.264 0.266 0.266h0c1.215 0 1.925 1.276 1.935 1.29 0.045 0.081 0.131 0.135 0.229 0.136v0c0.001 0 0.003 0 0.004 0 0.044 0 0.087-0.010 0.124-0.029l-0.002 0.001c0.061-0.035 0.107-0.091 0.13-0.157l0.001-0.002c0.006-0.021 0.010-0.046 0.010-0.071 0-0.047-0.012-0.092-0.034-0.131l0.001 0.001c-0.033-0.065-0.851-1.566-2.398-1.57z"></path>
<path fill="#f05462" d="M20.975 9.992c-0.121-0.018-0.261-0.028-0.403-0.028-1.178 0-2.193 0.697-2.655 1.702l-0.008 0.018c-0.012 0.030-0.019 0.064-0.019 0.1 0 0.11 0.067 0.205 0.163 0.245l0.002 0.001c0.015 0.003 0.032 0.005 0.049 0.005s0.034-0.002 0.051-0.005l-0.002 0c0.001 0 0.002 0 0.002 0 0.107 0 0.2-0.065 0.24-0.157l0.001-0.002c0.388-0.834 1.218-1.401 2.181-1.401 0.116 0 0.23 0.008 0.342 0.024l-0.013-0.002c0.021 0.006 0.045 0.009 0.070 0.009 0.147 0 0.266-0.119 0.266-0.266s-0.119-0.266-0.266-0.266v0z"></path>
</svg>
<svg id="icon-error" width="38" height="32" viewBox="0 0 38 32" x="96" y="0">
<path fill="#edb39a" d="M37.124 23.521l-13.501-21.005c-0.994-1.524-2.691-2.516-4.619-2.516s-3.625 0.993-4.606 2.495l-0.013 0.021-13.501 21.005c-0.551 0.842-0.879 1.873-0.879 2.981 0 3.036 2.461 5.498 5.498 5.498 0.010 0 0.020-0 0.030-0h26.943c0.008 0 0.018 0 0.028 0 3.036 0 5.498-2.461 5.498-5.498 0-1.108-0.328-2.139-0.891-3.002l0.013 0.021zM36.137 28.475c-0.714 1.281-2.060 2.132-3.606 2.132-0.035 0-0.071-0-0.106-0.001l0.005 0h-26.899c-0.007 0-0.015 0-0.022 0-2.329 0-4.217-1.888-4.217-4.217 0-0.846 0.249-1.634 0.679-2.295l-0.010 0.016 13.489-20.914c0.757-1.17 2.050-1.937 3.523-1.95h0.002c0.002 0 0.005 0 0.007 0 1.476 0 2.773 0.771 3.508 1.933l0.010 0.017 13.501 21.005c0.424 0.632 0.677 1.41 0.677 2.247 0 0.746-0.201 1.445-0.551 2.046l0.010-0.019z"></path>
<path fill="#edb39a" d="M18.726 23.487h0.499c0.338 0 0.612 0.274 0.612 0.612v0.555c0 0.338-0.274 0.612-0.612 0.612h-0.499c-0.338 0-0.612-0.274-0.612-0.612v-0.555c0-0.338 0.274-0.612 0.612-0.612z"></path>
<path fill="#edb39a" d="M18.885 10.542h0.193c0.338 0 0.612 0.274 0.612 0.612v9.941c0 0.338-0.274 0.612-0.612 0.612h-0.193c-0.338 0-0.612-0.274-0.612-0.612v-9.941c0-0.338 0.274-0.612 0.612-0.612z"></path>
</svg>
<svg id="icon-full-screen" width="32" height="32" viewBox="0 0 32 32" x="144" y="0">
<path fill="none" stroke="#7c7b7b" stroke-linejoin="miter" stroke-linecap="butt" stroke-miterlimit="10" stroke-width="0.695" d="M0.348 11.92v-11.573h11.573"></path>
<path fill="none" stroke="#7c7b7b" stroke-linejoin="miter" stroke-linecap="butt" stroke-miterlimit="10" stroke-width="0.695" d="M31.652 20.080v11.573h-11.573"></path>
<path fill="none" stroke="#7c7b7b" stroke-linejoin="miter" stroke-linecap="butt" stroke-miterlimit="10" stroke-width="0.695" d="M11.92 31.652h-11.573v-11.573"></path>
<path fill="none" stroke="#7c7b7b" stroke-linejoin="miter" stroke-linecap="butt" stroke-miterlimit="10" stroke-width="0.695" d="M20.080 0.348h11.573v11.573"></path>
</svg>
<svg id="icon-instagram" width="33" height="32" viewBox="0 0 33 32" x="192" y="0">
<path fill="#edb39a" d="M23.716 2.832c0.017-0 0.038-0 0.059-0 3.328 0 6.033 2.671 6.087 5.987l0 0.005v14.295c-0.054 3.321-2.759 5.992-6.087 5.992-0.021 0-0.041-0-0.062-0l0.003 0h-14.68c-0.017 0-0.038 0-0.058 0-3.325 0-6.025-2.673-6.068-5.988l-0-0.004v-14.295c0.043-3.318 2.744-5.992 6.068-5.992 0.021 0 0.041 0 0.061 0l-0.003-0zM0 8.824v14.295c0.065 4.887 4.042 8.824 8.938 8.824 0.034 0 0.068-0 0.102-0.001l-0.005 0h14.68c0.029 0 0.063 0.001 0.097 0.001 4.897 0 8.874-3.937 8.938-8.818l0-0.006v-14.295c-0.076-4.889-4.057-8.824-8.957-8.824-0.027 0-0.055 0-0.082 0l0.004-0h-14.68c-0.023-0-0.051-0-0.078-0-4.9 0-8.882 3.935-8.957 8.817l-0 0.007z"></path>
<path fill="#edb39a" d="M21.924 16.010c0.001 0.040 0.002 0.087 0.002 0.135 0 3.064-2.484 5.548-5.548 5.548s-5.548-2.484-5.548-5.548c0-3.064 2.483-5.548 5.547-5.548h0c0.017-0 0.038-0 0.058-0 3.005 0 5.447 2.415 5.49 5.41l0 0.004zM7.937 16.010c0.065 4.568 3.783 8.246 8.36 8.246 0.027 0 0.055-0 0.082-0l-0.004 0c0.029 0 0.063 0.001 0.097 0.001 4.573 0 8.287-3.68 8.341-8.241l0-0.005c-0.022-4.591-3.748-8.304-8.342-8.304-0.034 0-0.068 0-0.102 0.001l0.005-0c-0.023-0-0.050-0-0.077-0-4.598 0-8.328 3.711-8.361 8.301l-0 0.003z"></path>
<path fill="#edb39a" d="M5.471 7.417c0.005 0.576 0.248 1.095 0.635 1.463l0.001 0.001c0.389 0.382 0.923 0.618 1.512 0.618 0.031 0 0.061-0.001 0.091-0.002l-0.004 0c0.585-0.006 1.114-0.24 1.503-0.617l-0.001 0.001c0.383-0.375 0.62-0.896 0.62-1.474s-0.237-1.099-0.62-1.473l-0-0c-0.389-0.37-0.917-0.597-1.498-0.597-0.002 0-0.003 0-0.005 0h0c-0.006-0-0.013-0-0.020-0-0.576 0-1.099 0.228-1.483 0.598l0.001-0.001c-0.391 0.375-0.634 0.9-0.636 1.483v0z"></path>
</svg>
<svg id="icon-pick-date" width="33" height="32" viewBox="0 0 33 32" x="240" y="0">
<path fill="#7c7b7b" d="M21.474 3.366c0.232 0 0.421-0.188 0.421-0.421v0c0-0.232-0.188-0.421-0.421-0.421v0h-10.106c-0.232 0-0.421 0.188-0.421 0.421v0c0 0.232 0.188 0.421 0.421 0.421v0z"></path>
<path fill="#7c7b7b" d="M9.264 5.47v-5.049c0-0.232-0.188-0.421-0.421-0.421v0c-0.232 0-0.421 0.188-0.421 0.421v5.049c-0 0.002-0 0.004-0 0.007 0 0.232 0.188 0.421 0.421 0.421 0 0 0 0 0 0v0c0.233-0.004 0.421-0.194 0.421-0.428 0-0 0-0 0-0v0z"></path>
<path fill="#7c7b7b" d="M24.419 5.47v-5.049c0-0.232-0.188-0.421-0.421-0.421s-0.421 0.188-0.421 0.421v5.049c0 0.232 0.188 0.421 0.421 0.421s0.421-0.188 0.421-0.421v0z"></path>
<path fill="#7c7b7b" d="M31.496 2.525h-4.974c-0.231 0.004-0.417 0.19-0.421 0.42v0c0 0.232 0.188 0.421 0.421 0.421v0h4.974c0 0 0.001 0 0.001 0 0.25 0 0.458 0.18 0.502 0.418l0 0.003v5.477h-31.158v-5.477c0-0.193 0.090-0.421 0.338-0.421h5.139c0.232 0 0.421-0.188 0.421-0.421v0c-0.004-0.231-0.19-0.417-0.42-0.421h-5.139c-0.654 0.007-1.182 0.538-1.182 1.193 0 0.024 0.001 0.048 0.002 0.072l-0-0.003v26.951c-0.001 0.021-0.002 0.045-0.002 0.069 0 0.655 0.528 1.187 1.181 1.193h30.317c0.001 0 0.003 0 0.005 0 0.721 0 1.312-0.553 1.374-1.257l0-0.005v-26.951c-0.062-0.71-0.654-1.262-1.375-1.262-0.002 0-0.003 0-0.005 0h0zM31.496 31.158h-30.317c-0.248 0-0.338-0.228-0.338-0.421v-20.632h31.158v20.632c-0.044 0.241-0.252 0.421-0.503 0.421-0 0-0.001 0-0.001 0h0z"></path>
</svg>
<svg id="icon-rent" width="34" height="32" viewBox="0 0 34 32" x="288" y="0">
<path fill="#f05462" d="M33.729 4.796c-0.063-0.047-0.141-0.078-0.225-0.086l-0.002-0s0 0-0.049 0l-16.491-4.71h-0.141c-0.016-0.003-0.034-0.004-0.052-0.004s-0.036 0.002-0.054 0.005l0.002-0h-0.037l-6.869 2.048c-0.204 0.067-0.348 0.256-0.348 0.479 0 0.273 0.217 0.495 0.489 0.503h0.001c0.021 0.004 0.046 0.007 0.071 0.007s0.049-0.003 0.073-0.007l-0.002 0 6.746-1.993 14.933 4.231-14.81 5.059-14.841-5.096 5.47-1.619c0.208-0.063 0.356-0.252 0.356-0.477 0-0.049-0.007-0.096-0.020-0.14l0.001 0.003c-0.065-0.207-0.256-0.355-0.481-0.355-0.047 0-0.093 0.006-0.136 0.019l0.004-0.001-6.893 2.030-0.074 0.037c-0.054 0.018-0.1 0.041-0.143 0.069l0.002-0.001c-0.126 0.092-0.207 0.239-0.208 0.405v19.011c0.001 0.202 0.123 0.376 0.297 0.453l0.003 0.001 16.466 7.292c0.056 0.025 0.121 0.040 0.189 0.043l0.001 0c0.067-0.002 0.13-0.018 0.187-0.044l-0.003 0.001 16.484-7.292c0.177-0.078 0.299-0.251 0.3-0.454v-19.011c0-0.002 0-0.004 0-0.006 0-0.162-0.076-0.306-0.195-0.398l-0.001-0.001zM1 23.917v-18.012l15.46 5.305v19.52l-4.753-2.104zM32.926 23.917l-15.46 6.813v-19.52l15.46-5.305z"></path>
<path fill="#f05462" d="M22.948 18.864l2.729 2.067 3.496-5.237c0.048-0.072 0.077-0.161 0.077-0.256 0-0.033-0.003-0.065-0.010-0.096l0.001 0.003c-0.042-0.218-0.231-0.38-0.458-0.38-0.161 0-0.304 0.082-0.387 0.207l-0.001 0.002-2.944 4.415-1.938-1.472c-0.072-0.049-0.161-0.078-0.256-0.078-0.144 0-0.272 0.066-0.356 0.169l-0.001 0.001c-0.070 0.081-0.112 0.187-0.112 0.303 0 0.141 0.062 0.267 0.161 0.352l0.001 0z"></path>
</svg>
<svg id="icon-send" width="33" height="32" viewBox="0 0 33 32" x="336" y="0">
<path fill="#fff" d="M32.82 0.362v0c0.005-0.014 0.007-0.031 0.007-0.048s-0.003-0.033-0.007-0.049l0 0.001c-0.018-0.040-0.040-0.075-0.067-0.105l0 0-0.114-0.162h-0.324l-32.095 16.2c-0.132 0.062-0.221 0.194-0.221 0.346 0 0.069 0.018 0.134 0.050 0.19l-0.001-0.002c0.040 0.085 0.111 0.15 0.198 0.18l0.002 0.001 11.254 4.364 6.070 10.482c0.067 0.115 0.19 0.191 0.33 0.191 0.005 0 0.009-0 0.013-0l-0.001 0c0.151-0.007 0.28-0.098 0.342-0.226l0.001-0.002 14.532-31.209c0.019-0.035 0.030-0.077 0.030-0.121 0-0.011-0.001-0.022-0.002-0.032l0 0.001zM17.877 30.752l-5.651-9.691 2.811-2.802c0.076-0.070 0.124-0.17 0.124-0.281s-0.048-0.211-0.123-0.281l-0-0c-0.071-0.071-0.168-0.115-0.276-0.115s-0.206 0.044-0.276 0.115l-2.859 2.859-10.301-4.031 29.093-14.714-14.323 14.39c-0.074 0.071-0.119 0.171-0.119 0.281s0.046 0.21 0.119 0.281l0 0c0.069 0.071 0.166 0.114 0.272 0.114 0.001 0 0.003 0 0.004-0h-0c0.003 0 0.006 0 0.010 0 0.108 0 0.206-0.044 0.276-0.114v0l14.456-14.532z"></path>
</svg>
<svg id="icon-share" width="33" height="32" viewBox="0 0 33 32" x="384" y="0">
<path fill="#f05462" d="M12.62 2.981c0.080 0.049 0.176 0.078 0.28 0.078 0.040 0 0.080-0.004 0.117-0.013l-0.004 0.001c0.124-0.032 0.226-0.109 0.291-0.213l0.001-0.002c0.661-1.081 1.835-1.792 3.174-1.792 0.708 0 1.37 0.199 1.933 0.543l-0.016-0.009 0.066 0.042c1.061 0.665 1.757 1.828 1.757 3.154 0 2.048-1.661 3.709-3.709 3.709-0.723 0-1.397-0.207-1.968-0.564l0.015 0.009c-0.074-0.046-0.164-0.073-0.26-0.073-0.183 0-0.342 0.098-0.43 0.244l-0.001 0.002c-0.049 0.077-0.078 0.171-0.078 0.271 0 0.039 0.004 0.077 0.013 0.114l-0.001-0.003c0.035 0.134 0.118 0.245 0.23 0.315l0.002 0.001h0.030c0.689 0.413 1.519 0.657 2.407 0.657 1.715 0 3.217-0.911 4.049-2.275l0.012-0.021v-0.042c0.072-0.125 0.131-0.238 0.173-0.322l0.316-0.662 0.656 0.31c0.481 0.224 0.872 0.435 1.25 0.664l-0.058-0.033c3.319 2.009 5.625 5.404 6.122 9.362l0.006 0.063c0.036 0.247 0.247 0.435 0.501 0.435h0.060c0.257-0.027 0.456-0.242 0.456-0.504 0-0.033-0.003-0.064-0.009-0.095l0 0.003c-0.554-4.32-3.032-7.966-6.532-10.1l-0.061-0.035c-0.486-0.298-1.062-0.597-1.658-0.857l-0.095-0.037-0.435-0.179v-0.477c-0.005-0.383-0.057-0.752-0.15-1.105l0.007 0.032c-0.307-1.241-1.080-2.264-2.119-2.891l-0.021-0.012c-0.696-0.426-1.538-0.678-2.439-0.678-0.075 0-0.15 0.002-0.225 0.005l0.011-0h-0.113c-0.288 0.021-0.554 0.065-0.812 0.132l0.031-0.007h-0.030c-1.244 0.305-2.269 1.079-2.897 2.119l-0.012 0.021c-0.055 0.079-0.088 0.177-0.088 0.282 0 0.185 0.102 0.347 0.253 0.432l0.002 0.001z"></path>
<path fill="#f05462" d="M4.721 20.197c-0.155 0-0.286 0-0.435 0l-0.787 0.072v-1.18c0.002-0.006 0.002-0.013 0.002-0.021s-0.001-0.015-0.003-0.021l0 0.001v-0.268s0-0.078 0-0.167v-0.131c0-0.107 0-0.209 0-0.286-0-0.015-0-0.032-0-0.049 0-4.054 1.882-7.669 4.821-10.017l0.026-0.020c0.108-0.079 0.181-0.2 0.197-0.338l0-0.002c0.002-0.017 0.003-0.037 0.003-0.058 0-0.119-0.042-0.228-0.111-0.313l0.001 0.001c-0.073-0.093-0.176-0.159-0.295-0.184l-0.003-0.001h-0.048c-0.020-0.003-0.043-0.005-0.066-0.005-0.098 0-0.189 0.031-0.264 0.083l0.001-0.001h-0.089v0.066c-3.214 2.549-5.258 6.454-5.258 10.836 0 0.007 0 0.014 0 0.021v-0.001 0.125c0.001 0.013 0.002 0.029 0.002 0.045s-0.001 0.031-0.002 0.047l0-0.002h-0.030v0.25c-0.002 0.027-0.003 0.058-0.003 0.089s0.001 0.063 0.003 0.094l-0-0.004v0.060s0 0.060 0 0.131 0 0.083 0 0.167l0.042 0.465c0 0.167 0.036 0.328 0.060 0.495l0.078 0.477-0.411 0.25c-1.338 0.852-2.212 2.327-2.212 4.006 0 2.608 2.109 4.723 4.715 4.733h0.001c0.28 0 0.507-0.227 0.507-0.507s-0.227-0.507-0.507-0.507v0c-2.048 0-3.708-1.66-3.708-3.708s1.66-3.708 3.708-3.708c2.048 0 3.708 1.66 3.708 3.708v0c0 0.28 0.227 0.507 0.507 0.507v0c0.002 0 0.004 0 0.006 0 0.277 0 0.501-0.224 0.501-0.501 0-0.002 0-0.004-0-0.006v0c-0.003-2.583-2.078-4.681-4.652-4.721l-0.004-0z"></path>
<path fill="#f05462" d="M32 22.653c-0.088-0.158-0.254-0.264-0.445-0.264-0.28 0-0.507 0.227-0.507 0.507 0 0.081 0.019 0.157 0.053 0.225l-0.001-0.003c0.294 0.52 0.467 1.141 0.467 1.804 0 1.384-0.757 2.591-1.88 3.23l-0.018 0.010c-0.52 0.296-1.143 0.47-1.806 0.47-2.046 0-3.704-1.658-3.704-3.704 0-1.382 0.757-2.588 1.88-3.224l0.018-0.010c0.158-0.083 0.264-0.246 0.264-0.434 0-0.095-0.027-0.184-0.074-0.259l0.001 0.002c-0.082-0.156-0.243-0.26-0.428-0.26-0.021 0-0.042 0.001-0.063 0.004l0.002-0c-0.060 0.008-0.114 0.025-0.164 0.049l0.003-0.001h-0.036c-1.442 0.824-2.398 2.352-2.398 4.103 0 0.852 0.226 1.651 0.622 2.34l-0.012-0.023c0.066 0.125 0.149 0.244 0.233 0.376l0.393 0.596-0.596 0.399-0.060 0.048-0.143 0.095-0.066 0.042h-0.042l-0.054 0.036-0.119 0.083-0.113 0.072-0.113 0.066-0.101 0.060-0.078 0.042-0.37 0.215h-0.095c-1.758 0.963-3.853 1.53-6.079 1.53-1.766 0-3.449-0.357-4.98-1.001l0.084 0.032c-0.053-0.021-0.114-0.034-0.177-0.034-0.208 0-0.386 0.132-0.453 0.317l-0.001 0.003c-0.027 0.058-0.042 0.127-0.042 0.198 0 0.208 0.13 0.386 0.313 0.456l0.003 0.001c1.591 0.694 3.445 1.097 5.393 1.097 2.446 0 4.744-0.637 6.737-1.753l-0.070 0.036 0.697-0.417 0.25-0.161h0.054l0.161-0.107 0.054-0.042-0.036-0.060 0.048 0.054 0.101-0.072 0.107-0.089 0.066-0.048 0.143-0.107 0.37-0.262 0.399 0.215c0.661 0.368 1.448 0.588 2.287 0.596l0.002 0c0.005 0 0.010 0 0.016 0 0.837 0 1.623-0.221 2.302-0.608l-0.023 0.012c1.441-0.827 2.396-2.356 2.396-4.109 0-0.852-0.225-1.651-0.62-2.34l0.012 0.023z"></path>
</svg>
<svg id="icon-shop" width="40" height="32" viewBox="0 0 40 32" x="432" y="0">
<path fill="#7c7b7b" d="M19.737 16.145c-6.118 0-11.105-5.342-11.105-11.921 0-0.363 0.295-0.658 0.658-0.658v0c0.363 0 0.658 0.295 0.658 0.658v0c0 5.842 4.395 10.605 9.789 10.605s9.776-4.763 9.776-10.605c0-0.363 0.295-0.658 0.658-0.658v0c0.363 0 0.658 0.295 0.658 0.658v0c0.039 6.579-4.947 11.921-11.092 11.921z"></path>
<path fill="#7c7b7b" d="M38.882 32h-38.224c-0.194-0.002-0.367-0.088-0.486-0.223l-0.001-0.001c-0.107-0.12-0.173-0.28-0.173-0.454 0-0.016 0.001-0.032 0.002-0.048l-0 0.002 2.737-30.671c0.028-0.34 0.311-0.605 0.656-0.605 0.001 0 0.001 0 0.002 0h32.763c0.012-0.001 0.026-0.001 0.041-0.001 0.343 0 0.623 0.267 0.644 0.605l0 0.002 2.737 30.671c0.001 0.016 0.002 0.034 0.002 0.053 0 0.367-0.294 0.665-0.659 0.671h-0.001zM1.382 30.684h36.776l-2.632-29.368h-31.579z"></path>
</svg>
<svg id="icon-success" width="32" height="32" viewBox="0 0 32 32" x="480" y="0">
<path fill="#edb39a" d="M16 0c-8.837 0-16 7.163-16 16s7.163 16 16 16c8.837 0 16-7.163 16-16v0c-0.012-8.832-7.168-15.988-15.999-16h-0.001zM16 30.769c-8.157 0-14.769-6.612-14.769-14.769s6.612-14.769 14.769-14.769c8.157 0 14.769 6.612 14.769 14.769v0c-0.012 8.152-6.617 14.758-14.768 14.769h-0.001z"></path>
<path fill="#edb39a" d="M23.59 9.436l-9.508 10.646-5.703-4.564c-0.109-0.101-0.256-0.163-0.417-0.163-0.34 0-0.615 0.276-0.615 0.615 0 0.212 0.108 0.4 0.271 0.51l0.002 0.001 6.154 4.923c0.101 0.083 0.233 0.133 0.375 0.133 0.001 0 0.003 0 0.004-0h-0c0.183-0 0.347-0.079 0.461-0.205l0-0 9.846-11.077c0.097-0.109 0.156-0.252 0.156-0.41 0-0.341-0.276-0.618-0.618-0.618-0.183 0-0.348 0.080-0.461 0.207l-0.001 0.001z"></path>
</svg>
<svg id="icon-success-whitelist" width="37" height="32" viewBox="0 0 37 32" x="528" y="0">
<path fill="#f05462" d="M33.901 2.865c-1.774-1.769-4.222-2.863-6.926-2.863-3.667 0-6.864 2.012-8.547 4.993l-0.025 0.049c-1.719-2.999-4.902-4.987-8.55-4.987-5.424 0-9.822 4.397-9.822 9.822 0 2.691 1.082 5.128 2.834 6.902l-0.001-0.001 15.102 15.023c0.122 0.121 0.29 0.196 0.475 0.196s0.354-0.075 0.475-0.196l15.010-15.023c1.77-1.78 2.865-4.234 2.865-6.944 0-2.723-1.105-5.188-2.891-6.97l-0-0z"></path>
</svg>
<svg id="icon-whatsapp" width="32" height="32" viewBox="0 0 32 32" x="576" y="0">
<path fill="#edb39a" d="M16.155 0c-8.606 0.006-15.579 6.984-15.579 15.591 0 2.978 0.835 5.761 2.283 8.127l-0.039-0.068-2.82 8.35 8.623-2.765c2.175 1.225 4.775 1.947 7.544 1.947 8.611 0 15.591-6.98 15.591-15.591s-6.98-15.591-15.591-15.591c-0.004 0-0.009 0-0.013 0h0.001zM16.155 28.562c-2.631-0.017-5.071-0.817-7.106-2.176l0.047 0.030-4.985 1.601 1.619-4.821c-1.539-2.106-2.463-4.747-2.463-7.604 0-7.164 5.807-12.971 12.971-12.971s12.971 5.807 12.971 12.971c0 7.164-5.807 12.971-12.971 12.971-0.030 0-0.059-0-0.089-0l0.005 0zM23.431 19.12c-0.4-0.2-2.31-1.237-2.674-1.383s-0.619-0.236-0.891 0.164-1.092 1.255-1.328 1.51-0.473 0.273-0.855 0c-1.21-0.512-2.247-1.199-3.133-2.042l0.004 0.004c-0.81-0.809-1.501-1.738-2.044-2.757l-0.030-0.062c-0.218-0.4 0-0.6 0.2-0.8s0.418-0.455 0.619-0.673c0.177-0.186 0.324-0.402 0.431-0.64l0.006-0.014c0.052-0.101 0.083-0.22 0.083-0.346s-0.031-0.245-0.085-0.35l0.002 0.004c0-0.2-0.819-2.183-1.11-3.002s-0.637-0.691-0.873-0.691l-0.837-0.091c-0.422 0.011-0.801 0.19-1.073 0.473l-0 0c-0.895 0.806-1.459 1.964-1.474 3.254l-0 0.002c0.083 1.58 0.623 3.020 1.489 4.206l-0.015-0.022c1.569 2.664 3.787 4.795 6.443 6.215l0.088 0.043c3.984 1.819 4.020 1.201 4.748 1.164 1.163-0.194 2.14-0.866 2.737-1.803l0.010-0.016c0.207-0.429 0.328-0.933 0.328-1.465 0-0.125-0.007-0.248-0.020-0.37l0.001 0.015c-0.055-0.2-0.327-0.309-0.709-0.528z"></path>
</svg>
<svg id="icon-arrow-left" width="17" height="32" viewBox="0 0 17 32" x="624" y="0">
<path fill="none" stroke="#7c7b7b" stroke-linejoin="miter" stroke-linecap="butt" stroke-miterlimit="10" stroke-width="1.319" d="M16.462 31.525l-15.525-15.525 15.525-15.538"></path>
</svg>
<svg id="icon-arrow-right" width="17" height="32" viewBox="0 0 17 32" x="672" y="0">
<path fill="none" stroke="#7c7b7b" stroke-linejoin="miter" stroke-linecap="butt" stroke-miterlimit="10" stroke-width="1.319" d="M0.462 0.462l15.538 15.538-15.538 15.525"></path>
</svg>
<svg id="icon-close" width="32" height="32" viewBox="0 0 32 32" x="720" y="0">
<path fill="none" stroke="#7c7b7b" stroke-linejoin="miter" stroke-linecap="butt" stroke-miterlimit="10" stroke-width="1.319" d="M0.462 0.462l15.538 15.538-15.538 15.525"></path>
<path fill="none" stroke="#7c7b7b" stroke-linejoin="miter" stroke-linecap="butt" stroke-miterlimit="10" stroke-width="1.319" d="M31.578 31.525l-15.538-15.525 15.538-15.538"></path>
</svg>
</svg>
